<?xml version="1.0" encoding="utf-8"?>
<svg xmlns="http://www.w3.org/2000/svg" xmlns:xlink="http://www.w3.org/1999/xlink">

    <symbol id="logotype" viewBox="0 0 132 12" xmlns="http://www.w3.org/2000/svg" fill="none">
        <path fill="currentColor" d="M.02.5h3.757a.89.89 0 0 1 .578.248c.155.15.246.35.256.561v9.31L11.705.5h2.9v12.547h1.253v2.429h-3.339a.848.848 0 0 1-.59-.237.797.797 0 0 1-.245-.573V4.952L4.59 15.5H1.67V2.953H0L.02.5zm16.797 4.108v2.328h1.565v8.467h2.504v-4.384h4.974v3.777s.313.676.835.676H30v-2.396h-1.181s-.45-.203-.45-.438v-8.03h-2.63v4.42h-4.507V5.385a1.218 1.218 0 0 0-.492-.637 1.282 1.282 0 0 0-.793-.205c-.73 0-3.13.065-3.13.065zM38.254 4.5c1.747 0 2.5 1.746 2.517 2.816 0 .602.118 1.746-1.291 2.511.77.423 1.735 1.205 1.747 2.442 0 2.848-2.745 3.231-2.745 3.231h-5.474c-.607 0-.786-.737-.786-.737v-7.76H31V4.5h7.254zm-.613 6.143h-2.57v2.854h2.605c.177.012.354-.012.52-.07.166-.057.317-.147.442-.263a1.14 1.14 0 0 0 .284-.409c.062-.153.087-.318.075-.481a1.659 1.659 0 0 0-.389-1.022 1.886 1.886 0 0 0-.967-.61zM37.073 6.5L35 6.533v2.58h2.606s.99 0 .99-1.222c0-1.224-1.523-1.391-1.523-1.391zm10.992-2c5.934 0 4.859 6.104 4.859 6.104h-7.6s1.03 2.817 3.201 2.817c2.171 0 2.986-1.12 2.986-1.12l1.12 1.697-.02.02c-.177.174-1.606 1.482-4.46 1.482-5.963 0-5.702-5.388-5.702-5.388l-.002-.044v-.182c.016-1.047.4-5.386 5.618-5.386zM46 9.442v.051l5 .007s-.1-2.915-2.214-2.997c-2.652-.11-2.782 2.513-2.786 2.939zm15.692-.79h2.318V6.452s-.782-1.518-4.175-1.518a5.726 5.726 0 0 0-4.165 1.655 5.635 5.635 0 0 0-1.669 4.14c0 3.241 2.924 5.378 5.41 5.378 2.487 0 5.007-1.879 5.007-1.879l-1.235-1.944a4.588 4.588 0 0 1-3.294 1.588c-2.017 0-3.19-1.535-3.19-3.323 0-1.789 1.288-3.48 3.038-3.48 2.161-.003 1.955 1.585 1.955 1.585zm3.566 0h2.47V7.426l1.647-.05v8.596h2.882V7.425h1.688l-.033 1.228 2.849.032V5.821s-.198-.852-1.585-.852h-9.058s-.852.238-.852 1.007l-.008 2.677zM77.18.5v2.795h1.268v12.688h2.775l7.41-11.05V15.2s.03.794.515.794h3.293v-2.43h-1.305V.847h-2.811l-7 10.703V1.657S81.5.55 80.212.55C78.922.55 77.18.5 77.18.5zm26.229 4.449a.858.858 0 0 1 .647.245.837.837 0 0 1 .247.643v8.087h.823a.92.92 0 0 1 .873.766v3.806h-2.47V15.99h-7.41V18.5h-2.496v-4.093c1.408-.31 2.409-1.28 2.862-3.09V7.404h-1.269V4.95zM102 7.5h-2.74s-.024.704-.028 2.492v.492a4.675 4.675 0 0 1-.3 1.767A4.387 4.387 0 0 1 98 13.738v.762h4v-7zm11.857-3c6.184 0 5.064 6.104 5.064 6.104h-7.925s1.078 2.817 3.34 2.817c2.263 0 3.112-1.12 3.112-1.12l1.167 1.697s-1.481 1.502-4.669 1.502c-5.583 0-5.931-4.348-5.944-5.232v-.116l.001-.04-.002-.042v-.176c.015-1.035.405-5.394 5.856-5.394zm8.253 0c.953 0 .916 1.14.916 1.14l-.025 6.226 4.924-7.366h2.532v8.592H132v2.343h-3.213c-.44 0-.478-.575-.48-.74v-6.46l-5.232 7.265h-2.495V7.014H119V4.5zM111 9.399V9.5h5s-.101-2.915-2.214-2.997c-2.574-.107-2.773 2.361-2.786 2.896z"/>
    </symbol>

    <symbol id="idea" viewBox="0 0 13 13"  xmlns="http://www.w3.org/2000/svg" fill="none">
        <path d="M1.625 6.5H2.16667M6.5 1.625V2.16667M10.8333 6.5H11.375M3.03333 3.03333L3.4125 3.4125M9.96667 3.03333L9.5875 3.4125M5.25417 9.20833H7.74583M4.875 8.66667C4.42025 8.32561 4.08435 7.85011 3.91486 7.30754C3.74537 6.76496 3.7509 6.18281 3.93065 5.64355C4.1104 5.10429 4.45527 4.63525 4.91641 4.30289C5.37755 3.97052 5.93157 3.79167 6.5 3.79167C7.06843 3.79167 7.62245 3.97052 8.08359 4.30289C8.54473 4.63525 8.8896 5.10429 9.06935 5.64355C9.2491 6.18281 9.25463 6.76496 9.08514 7.30754C8.91565 7.85011 8.57975 8.32561 8.125 8.66667C7.91352 8.87601 7.75428 9.1322 7.66018 9.4145C7.56608 9.69681 7.53975 9.9973 7.58333 10.2917C7.58333 10.579 7.4692 10.8545 7.26603 11.0577C7.06287 11.2609 6.78732 11.375 6.5 11.375C6.21268 11.375 5.93713 11.2609 5.73397 11.0577C5.5308 10.8545 5.41667 10.579 5.41667 10.2917C5.46025 9.9973 5.43392 9.69681 5.33982 9.4145C5.24572 9.1322 5.08648 8.87601 4.875 8.66667Z" stroke="currentColor" stroke-linecap="round" stroke-linejoin="round"/>
    </symbol>

    <symbol id="export" viewBox="0 0 20 21" xmlns="http://www.w3.org/2000/svg" fill="none">
        <path  fill="currentColor" d="M19 12.5a1 1 0 0 1 1 1v4a3 3 0 0 1-3 3H3a3 3 0 0 1-3-3v-4a1 1 0 0 1 2 0v4a1 1 0 0 0 1 1h14a1 1 0 0 0 1-1v-4a1 1 0 0 1 1-1zm-9-12a1 1 0 0 1 1 1v9.585l3.293-3.292a1 1 0 0 1 1.32-.083l.094.083a1 1 0 0 1 0 1.414l-5 5a1.006 1.006 0 0 1-.09.08l.09-.08a1.008 1.008 0 0 1-.674.292L10 14.5h-.032l-.054-.004.086.004a1.008 1.008 0 0 1-.617-.213 1.016 1.016 0 0 1-.09-.08l-5-5a1 1 0 0 1 1.414-1.414L9 11.085V1.5a1 1 0 0 1 1-1z"/>
    </symbol>

    <symbol id="dots" viewBox="0 0 18 5" xmlns="http://www.w3.org/2000/svg" fill="none">
        <path fill="currentColor" d="M16 .5a2 2 0 1 1 0 4 2 2 0 0 1 0-4zm-7 0a2 2 0 1 1 0 4 2 2 0 0 1 0-4zm-7 0a2 2 0 1 1 0 4 2 2 0 0 1 0-4z"/>
    </symbol>

</svg>